<mxfile host="app.diagrams.net" agent="Mozilla/5.0 (Windows NT 10.0; Win64; x64) AppleWebKit/537.36 (KHTML, like Gecko) Chrome/131.0.0.0 Safari/537.36" version="25.0.3">
  <diagram name="Side-1" id="Rz-6J_NEEetV9Vjj-D1_">
    <mxGraphModel dx="1509" dy="819" grid="0" gridSize="10" guides="1" tooltips="1" connect="1" arrows="1" fold="1" page="0" pageScale="1" pageWidth="1169" pageHeight="827" math="0" shadow="0">
      <root>
        <mxCell id="0" />
        <mxCell id="1" parent="0" />
        <mxCell id="9NmWOric9MJnwB5_VfGY-1" value="Users" style="shape=umlActor;verticalLabelPosition=bottom;verticalAlign=top;html=1;outlineConnect=0;" parent="1" vertex="1">
          <mxGeometry x="394" y="571" width="30" height="60" as="geometry" />
        </mxCell>
        <mxCell id="9NmWOric9MJnwB5_VfGY-10" value="" style="edgeStyle=orthogonalEdgeStyle;rounded=0;orthogonalLoop=1;jettySize=auto;html=1;" parent="1" source="9NmWOric9MJnwB5_VfGY-4" target="9NmWOric9MJnwB5_VfGY-5" edge="1">
          <mxGeometry relative="1" as="geometry">
            <mxPoint x="287" y="134" as="targetPoint" />
          </mxGeometry>
        </mxCell>
        <mxCell id="9NmWOric9MJnwB5_VfGY-4" value="Institution" style="shape=umlActor;verticalLabelPosition=bottom;verticalAlign=top;html=1;outlineConnect=0;" parent="1" vertex="1">
          <mxGeometry x="123" y="104" width="30" height="60" as="geometry" />
        </mxCell>
        <mxCell id="9NmWOric9MJnwB5_VfGY-14" value="" style="edgeStyle=orthogonalEdgeStyle;rounded=0;orthogonalLoop=1;jettySize=auto;html=1;entryX=0;entryY=0.5;entryDx=0;entryDy=0;" parent="1" source="9NmWOric9MJnwB5_VfGY-5" target="9NmWOric9MJnwB5_VfGY-12" edge="1">
          <mxGeometry relative="1" as="geometry">
            <mxPoint x="477" y="134" as="targetPoint" />
          </mxGeometry>
        </mxCell>
        <mxCell id="9NmWOric9MJnwB5_VfGY-5" value="Owner" style="shape=umlActor;verticalLabelPosition=bottom;verticalAlign=top;html=1;outlineConnect=0;" parent="1" vertex="1">
          <mxGeometry x="331" y="104" width="30" height="60" as="geometry" />
        </mxCell>
        <mxCell id="9NmWOric9MJnwB5_VfGY-11" value="Sends email list" style="text;html=1;align=center;verticalAlign=middle;whiteSpace=wrap;rounded=0;" parent="1" vertex="1">
          <mxGeometry x="207" y="101" width="60" height="30" as="geometry" />
        </mxCell>
        <mxCell id="9NmWOric9MJnwB5_VfGY-18" value="" style="edgeStyle=orthogonalEdgeStyle;rounded=0;orthogonalLoop=1;jettySize=auto;html=1;" parent="1" source="9NmWOric9MJnwB5_VfGY-12" target="9NmWOric9MJnwB5_VfGY-17" edge="1">
          <mxGeometry relative="1" as="geometry" />
        </mxCell>
        <mxCell id="9NmWOric9MJnwB5_VfGY-12" value="/management" style="rounded=1;whiteSpace=wrap;html=1;" parent="1" vertex="1">
          <mxGeometry x="549" y="104" width="120" height="60" as="geometry" />
        </mxCell>
        <mxCell id="9NmWOric9MJnwB5_VfGY-15" value="createUsers(institutionId)" style="text;html=1;align=center;verticalAlign=middle;whiteSpace=wrap;rounded=0;" parent="1" vertex="1">
          <mxGeometry x="420" y="104" width="60" height="30" as="geometry" />
        </mxCell>
        <mxCell id="9NmWOric9MJnwB5_VfGY-16" value="DB_01" style="shape=cylinder3;whiteSpace=wrap;html=1;boundedLbl=1;backgroundOutline=1;size=15;" parent="1" vertex="1">
          <mxGeometry x="1091" y="273" width="60" height="80" as="geometry" />
        </mxCell>
        <mxCell id="9NmWOric9MJnwB5_VfGY-25" style="edgeStyle=orthogonalEdgeStyle;rounded=0;orthogonalLoop=1;jettySize=auto;html=1;" parent="1" source="9NmWOric9MJnwB5_VfGY-17" edge="1">
          <mxGeometry relative="1" as="geometry">
            <mxPoint x="410" y="428" as="targetPoint" />
          </mxGeometry>
        </mxCell>
        <mxCell id="9NmWOric9MJnwB5_VfGY-17" value="Server_01" style="shape=cube;whiteSpace=wrap;html=1;boundedLbl=1;backgroundOutline=1;darkOpacity=0.05;darkOpacity2=0.1;" parent="1" vertex="1">
          <mxGeometry x="549" y="273" width="120" height="80" as="geometry" />
        </mxCell>
        <mxCell id="9NmWOric9MJnwB5_VfGY-19" value="POST&lt;br&gt;/api/users" style="text;html=1;align=center;verticalAlign=middle;whiteSpace=wrap;rounded=0;" parent="1" vertex="1">
          <mxGeometry x="613" y="199" width="60" height="30" as="geometry" />
        </mxCell>
        <mxCell id="9NmWOric9MJnwB5_VfGY-22" style="edgeStyle=orthogonalEdgeStyle;rounded=0;orthogonalLoop=1;jettySize=auto;html=1;entryX=0;entryY=0.5;entryDx=0;entryDy=0;entryPerimeter=0;" parent="1" source="9NmWOric9MJnwB5_VfGY-17" target="9NmWOric9MJnwB5_VfGY-16" edge="1">
          <mxGeometry relative="1" as="geometry" />
        </mxCell>
        <mxCell id="9NmWOric9MJnwB5_VfGY-23" value="&lt;div&gt;INSERT INTO users (id, username, institution_id, role_id, email, token_id)&amp;nbsp;&lt;/div&gt;" style="text;html=1;align=center;verticalAlign=middle;whiteSpace=wrap;rounded=0;" parent="1" vertex="1">
          <mxGeometry x="631" y="287" width="486" height="30" as="geometry" />
        </mxCell>
        <mxCell id="9NmWOric9MJnwB5_VfGY-27" style="edgeStyle=orthogonalEdgeStyle;rounded=0;orthogonalLoop=1;jettySize=auto;html=1;" parent="1" source="9NmWOric9MJnwB5_VfGY-24" target="9NmWOric9MJnwB5_VfGY-1" edge="1">
          <mxGeometry relative="1" as="geometry" />
        </mxCell>
        <mxCell id="9NmWOric9MJnwB5_VfGY-24" value="SMTP Server" style="shape=cube;whiteSpace=wrap;html=1;boundedLbl=1;backgroundOutline=1;darkOpacity=0.05;darkOpacity2=0.1;" parent="1" vertex="1">
          <mxGeometry x="349" y="431" width="120" height="80" as="geometry" />
        </mxCell>
        <mxCell id="9NmWOric9MJnwB5_VfGY-26" value="sendEmail(id, email, link)" style="text;html=1;align=center;verticalAlign=middle;whiteSpace=wrap;rounded=0;" parent="1" vertex="1">
          <mxGeometry x="400" y="283" width="161" height="30" as="geometry" />
        </mxCell>
        <mxCell id="9NmWOric9MJnwB5_VfGY-43" style="edgeStyle=orthogonalEdgeStyle;rounded=0;orthogonalLoop=1;jettySize=auto;html=1;entryX=0;entryY=0.5;entryDx=0;entryDy=0;" parent="1" source="9NmWOric9MJnwB5_VfGY-35" target="9NmWOric9MJnwB5_VfGY-42" edge="1">
          <mxGeometry relative="1" as="geometry">
            <mxPoint x="489" y="576" as="targetPoint" />
          </mxGeometry>
        </mxCell>
        <mxCell id="9NmWOric9MJnwB5_VfGY-35" value="" style="shape=umlActor;verticalLabelPosition=bottom;verticalAlign=top;html=1;outlineConnect=0;" parent="1" vertex="1">
          <mxGeometry x="424" y="571" width="30" height="60" as="geometry" />
        </mxCell>
        <mxCell id="9NmWOric9MJnwB5_VfGY-36" value="" style="shape=umlActor;verticalLabelPosition=bottom;verticalAlign=top;html=1;outlineConnect=0;" parent="1" vertex="1">
          <mxGeometry x="364" y="571" width="30" height="60" as="geometry" />
        </mxCell>
        <mxCell id="9NmWOric9MJnwB5_VfGY-41" value="&lt;div&gt;INSERT INTO tokens (id, expires_at,&amp;nbsp;&lt;span style=&quot;background-color: initial;&quot;&gt;token_string,&lt;/span&gt;&lt;span style=&quot;background-color: initial;&quot;&gt;&amp;nbsp;token_type_id,&amp;nbsp;&lt;/span&gt;&lt;span style=&quot;background-color: initial;&quot;&gt;user_id&lt;/span&gt;&lt;span style=&quot;background-color: initial;&quot;&gt;)&amp;nbsp;&lt;/span&gt;&lt;/div&gt;" style="text;html=1;align=center;verticalAlign=middle;whiteSpace=wrap;rounded=0;" parent="1" vertex="1">
          <mxGeometry x="659" y="265" width="436" height="30" as="geometry" />
        </mxCell>
        <mxCell id="9NmWOric9MJnwB5_VfGY-52" style="edgeStyle=orthogonalEdgeStyle;rounded=0;orthogonalLoop=1;jettySize=auto;html=1;entryX=0.5;entryY=0;entryDx=0;entryDy=0;" parent="1" source="9NmWOric9MJnwB5_VfGY-42" target="9NmWOric9MJnwB5_VfGY-51" edge="1">
          <mxGeometry relative="1" as="geometry" />
        </mxCell>
        <mxCell id="9NmWOric9MJnwB5_VfGY-42" value="/verify" style="rounded=1;whiteSpace=wrap;html=1;" parent="1" vertex="1">
          <mxGeometry x="552" y="571" width="120" height="60" as="geometry" />
        </mxCell>
        <mxCell id="9NmWOric9MJnwB5_VfGY-44" value="Clicks link" style="text;html=1;align=center;verticalAlign=middle;whiteSpace=wrap;rounded=0;" parent="1" vertex="1">
          <mxGeometry x="473" y="576" width="60" height="30" as="geometry" />
        </mxCell>
        <mxCell id="9NmWOric9MJnwB5_VfGY-45" value="Server_01" style="shape=cube;whiteSpace=wrap;html=1;boundedLbl=1;backgroundOutline=1;darkOpacity=0.05;darkOpacity2=0.1;" parent="1" vertex="1">
          <mxGeometry x="838" y="571" width="120" height="80" as="geometry" />
        </mxCell>
        <mxCell id="9NmWOric9MJnwB5_VfGY-46" style="edgeStyle=orthogonalEdgeStyle;rounded=0;orthogonalLoop=1;jettySize=auto;html=1;entryX=0;entryY=0;entryDx=0;entryDy=30;entryPerimeter=0;" parent="1" source="9NmWOric9MJnwB5_VfGY-42" target="9NmWOric9MJnwB5_VfGY-45" edge="1">
          <mxGeometry relative="1" as="geometry" />
        </mxCell>
        <mxCell id="9NmWOric9MJnwB5_VfGY-47" value="DB_01" style="shape=cylinder3;whiteSpace=wrap;html=1;boundedLbl=1;backgroundOutline=1;size=15;" parent="1" vertex="1">
          <mxGeometry x="1233" y="571" width="60" height="80" as="geometry" />
        </mxCell>
        <mxCell id="9NmWOric9MJnwB5_VfGY-48" style="edgeStyle=orthogonalEdgeStyle;rounded=0;orthogonalLoop=1;jettySize=auto;html=1;entryX=0;entryY=0.5;entryDx=0;entryDy=0;entryPerimeter=0;" parent="1" source="9NmWOric9MJnwB5_VfGY-45" target="9NmWOric9MJnwB5_VfGY-47" edge="1">
          <mxGeometry relative="1" as="geometry" />
        </mxCell>
        <mxCell id="9NmWOric9MJnwB5_VfGY-49" value="PATCH&lt;div&gt;/api/users/:id&lt;/div&gt;" style="text;html=1;align=center;verticalAlign=middle;whiteSpace=wrap;rounded=0;" parent="1" vertex="1">
          <mxGeometry x="718" y="564" width="77" height="30" as="geometry" />
        </mxCell>
        <mxCell id="9NmWOric9MJnwB5_VfGY-50" value="&lt;div style=&quot;text-align: center;&quot;&gt;UPDATE users SET password = ? WHERE id = ?&lt;/div&gt;" style="text;whiteSpace=wrap;html=1;" parent="1" vertex="1">
          <mxGeometry x="963" y="576" width="270" height="36" as="geometry" />
        </mxCell>
        <mxCell id="9NmWOric9MJnwB5_VfGY-51" value="/login" style="rounded=1;whiteSpace=wrap;html=1;" parent="1" vertex="1">
          <mxGeometry x="552" y="716" width="120" height="60" as="geometry" />
        </mxCell>
        <mxCell id="9NmWOric9MJnwB5_VfGY-54" value="Redirect to&lt;div&gt;/login&lt;/div&gt;" style="text;html=1;align=center;verticalAlign=middle;whiteSpace=wrap;rounded=0;" parent="1" vertex="1">
          <mxGeometry x="612" y="658" width="81" height="30" as="geometry" />
        </mxCell>
      </root>
    </mxGraphModel>
  </diagram>
</mxfile>
